<?xml version="1.0" encoding="UTF-8"?>
<svg width="257px" height="257px" viewBox="0 0 257 257" version="1.1" xmlns="http://www.w3.org/2000/svg" xmlns:xlink="http://www.w3.org/1999/xlink">
    <title>randoms logo</title>
    <g id="Page-1" stroke="none" stroke-width="1" fill="none" fill-rule="evenodd">
        <path d="M39.7908349,0.0982331341 L245.070718,25.3034335 C252.196904,26.178419 257.264502,32.6646496 256.389517,39.7908349 L231.184316,245.070718 C230.309331,252.196904 223.8231,257.264502 216.696915,256.389517 L119.477,244.452 L95.459278,140.420294 C114.550399,133.431825 129.185421,116.350455 132.071314,94.8741226 L132.155161,94.2219853 C135.917259,63.5821586 114.402176,35.6644225 83.9544679,31.3793791 L83.9544679,31.3793791 L23.759,23.988 L25.3034335,11.4170316 C26.178419,4.2908463 32.6646496,-0.776752404 39.7908349,0.0982331341 Z M9.988,136.146 L63.137147,142.671944 L85.677,240.302 L11.4170316,231.184316 C4.2908463,230.309331 -0.776752404,223.8231 0.0982331341,216.696915 L9.988,136.146 Z M19.86,55.749 L79.0621028,63.0189866 C92.4922213,64.6679978 102.042696,76.8920477 100.393685,90.3221663 C98.7446734,103.752285 86.5206235,113.302759 73.090505,111.653748 L73.090505,111.653748 L13.888,104.384 L19.86,55.749 Z" id="Combined-Shape-Copy" fill="#9E12B4"></path>
    </g>
</svg>
